<svg xmlns="http://www.w3.org/2000/svg" viewBox="0 0 100 100">
  <path d="M 13.5 49.5 L 24 68.5 L 46 68.5 L 50 62 L 54 68.5 L 75.5 68.5 L 86 50.5 L 75.5 31 L 54 31 L 50 37.5 L 46 31 L 24.5 31 Z M 74 66.5 L 83 51.5 L 65.5 51 L 56.5 66 Z M 25.5 66.5 L 43 66 L 34.5 51 L 16.5 51.5 Z M 45.5 50.5 L 50 57 L 54.5 50 L 49.5 42.5 Z M 51 40 L 56.5 50 L 51 60 L 54.5 65 L 63.5 49.5 L 54.5 34.5 Z M 36.5 50.5 L 45.5 65 L 48.5 59 L 43 49.5 L 48.5 39.5 L 45 34.5 Z M 65.5 49 L 83 48.5 L 74 33 L 56.5 33.5 Z M 34 49 L 43 33.5 L 25.5 33 L 17 48.5 Z" fill="currentColor" fill-rule="evenodd"/>
</svg>