<svg xmlns="http://www.w3.org/2000/svg" viewBox="0 0 200 200">
  <defs>
    <linearGradient id="g" x1="0" y1="0" x2="0" y2="1">
      <stop offset="0" stop-color="#ffffff"/>
      <stop offset="1" stop-color="#d8d8d8"/>
    </linearGradient>
    <filter id="shadow" x="-20%" y="-20%" width="140%" height="140%">
      <feOffset dx="2" dy="3" result="off"/>
      <feGaussianBlur in="off" stdDeviation="2" result="blur"/>
      <feColorMatrix in="blur" type="matrix"
        values="0 0 0 0 0
                0 0 0 0 0
                0 0 0 0 0
                0 0 0 0.35 0" result="shadow"/>
      <feMerge>
        <feMergeNode in="shadow"/>
        <feMergeNode in="SourceGraphic"/>
      </feMerge>
    </filter>
  </defs>
  <rect width="200" height="200" fill="#372929"/>
  <path d="M 27 99 L 48 137 L 92 137 L 100 124 L 108 137 L 151 137 L 172 101 L 151 62 L 108 62 L 100 75 L 92 62 L 49 62 Z M 148 133 L 166 103 L 131 102 L 113 132 Z M 51 133 L 86 132 L 69 102 L 33 103 Z M 91 101 L 100 114 L 109 100 L 99 85 Z M 102 80 L 113 100 L 102 120 L 109 130 L 127 99 L 109 69 Z M 73 101 L 91 130 L 97 118 L 86 99 L 97 79 L 90 69 Z M 131 98 L 166 97 L 148 66 L 113 67 Z M 68 98 L 86 67 L 51 66 L 34 97 Z" fill="#000000" opacity="0.18" transform="translate(3 3)" />
  <path d="M 27 99 L 48 137 L 92 137 L 100 124 L 108 137 L 151 137 L 172 101 L 151 62 L 108 62 L 100 75 L 92 62 L 49 62 Z M 148 133 L 166 103 L 131 102 L 113 132 Z M 51 133 L 86 132 L 69 102 L 33 103 Z M 91 101 L 100 114 L 109 100 L 99 85 Z M 102 80 L 113 100 L 102 120 L 109 130 L 127 99 L 109 69 Z M 73 101 L 91 130 L 97 118 L 86 99 L 97 79 L 90 69 Z M 131 98 L 166 97 L 148 66 L 113 67 Z M 68 98 L 86 67 L 51 66 L 34 97 Z" fill="url(#g)" fill-rule="evenodd" filter="url(#shadow)"/>
</svg>